solid OpenSCAD_Model
  facet normal 1 -0 0
    outer loop
      vertex 20 0 10
      vertex 20 10 0
      vertex 20 10 10
    endloop
  endfacet
  facet normal 1 0 0
    outer loop
      vertex 20 10 0
      vertex 20 0 10
      vertex 20 0 0
    endloop
  endfacet
  facet normal 0 0 1
    outer loop
      vertex 20 10 10
      vertex 19 9 10
      vertex 20 0 10
    endloop
  endfacet
  facet normal 0 0 1
    outer loop
      vertex 20 10 10
      vertex 11 9 10
      vertex 19 9 10
    endloop
  endfacet
  facet normal 0 0 1
    outer loop
      vertex 11 9 10
      vertex 10 10 10
      vertex 11 1 10
    endloop
  endfacet
  facet normal -0 0 1
    outer loop
      vertex 10 10 10
      vertex 11 9 10
      vertex 20 10 10
    endloop
  endfacet
  facet normal -0 0 1
    outer loop
      vertex 19 1 10
      vertex 20 0 10
      vertex 19 9 10
    endloop
  endfacet
  facet normal -0 0 1
    outer loop
      vertex 11 1 10
      vertex 20 0 10
      vertex 19 1 10
    endloop
  endfacet
  facet normal 0 0 1
    outer loop
      vertex 11 1 10
      vertex 10 0 10
      vertex 20 0 10
    endloop
  endfacet
  facet normal 0 0 1
    outer loop
      vertex 10 0 10
      vertex 11 1 10
      vertex 10 10 10
    endloop
  endfacet
  facet normal 0 0 -1
    outer loop
      vertex 10 0 0
      vertex 20 10 0
      vertex 20 0 0
    endloop
  endfacet
  facet normal -0 0 -1
    outer loop
      vertex 20 10 0
      vertex 10 0 0
      vertex 10 10 0
    endloop
  endfacet
  facet normal -1 0 0
    outer loop
      vertex 10 0 0
      vertex 10 10 10
      vertex 10 10 0
    endloop
  endfacet
  facet normal -1 -0 0
    outer loop
      vertex 10 10 10
      vertex 10 0 0
      vertex 10 0 10
    endloop
  endfacet
  facet normal 0 1 -0
    outer loop
      vertex 20 10 0
      vertex 10 10 10
      vertex 20 10 10
    endloop
  endfacet
  facet normal 0 1 0
    outer loop
      vertex 10 10 10
      vertex 20 10 0
      vertex 10 10 0
    endloop
  endfacet
  facet normal 0 -1 0
    outer loop
      vertex 10 0 0
      vertex 20 0 10
      vertex 10 0 10
    endloop
  endfacet
  facet normal 0 -1 -0
    outer loop
      vertex 20 0 10
      vertex 10 0 0
      vertex 20 0 0
    endloop
  endfacet
  facet normal -1 0 0
    outer loop
      vertex 19 1 1
      vertex 19 9 10
      vertex 19 9 1
    endloop
  endfacet
  facet normal -1 -0 0
    outer loop
      vertex 19 9 10
      vertex 19 1 1
      vertex 19 1 10
    endloop
  endfacet
  facet normal -0 0 1
    outer loop
      vertex 11 9 1
      vertex 19 1 1
      vertex 19 9 1
    endloop
  endfacet
  facet normal 0 0 1
    outer loop
      vertex 19 1 1
      vertex 11 9 1
      vertex 11 1 1
    endloop
  endfacet
  facet normal 1 -0 0
    outer loop
      vertex 11 1 10
      vertex 11 9 1
      vertex 11 9 10
    endloop
  endfacet
  facet normal 1 0 0
    outer loop
      vertex 11 9 1
      vertex 11 1 10
      vertex 11 1 1
    endloop
  endfacet
  facet normal 0 -1 0
    outer loop
      vertex 11 9 1
      vertex 19 9 10
      vertex 11 9 10
    endloop
  endfacet
  facet normal 0 -1 -0
    outer loop
      vertex 19 9 10
      vertex 11 9 1
      vertex 19 9 1
    endloop
  endfacet
  facet normal 0 1 -0
    outer loop
      vertex 19 1 1
      vertex 11 1 10
      vertex 19 1 10
    endloop
  endfacet
  facet normal 0 1 0
    outer loop
      vertex 11 1 10
      vertex 19 1 1
      vertex 11 1 1
    endloop
  endfacet
endsolid OpenSCAD_Model
